<?xml version="1.0" encoding="UTF-8" standalone="no"?>
<svg xmlns="http://www.w3.org/2000/svg" width="300" height="80" viewBox="0 0 300 80">
  <!-- Definitions for gradients and effects -->
  <defs>
    <!-- Primary blue gradient -->
    <linearGradient id="blue-gradient" x1="0%" y1="0%" x2="0%" y2="100%">
      <stop offset="0%" stop-color="#1a75ff" />
      <stop offset="100%" stop-color="#004dc0" />
    </linearGradient>
    
    <!-- Secondary accent color -->
    <linearGradient id="accent-gradient" x1="0%" y1="0%" x2="100%" y2="0%">
      <stop offset="0%" stop-color="#00a8cc" />
      <stop offset="100%" stop-color="#0080b3" />
    </linearGradient>
    
    <!-- Shadow effect -->
    <filter id="shadow" x="-10%" y="-10%" width="120%" height="120%">
      <feGaussianBlur in="SourceAlpha" stdDeviation="1" />
      <feOffset dx="1" dy="1" result="offsetblur" />
      <feComponentTransfer>
        <feFuncA type="linear" slope="0.2" />
      </feComponentTransfer>
      <feMerge>
        <feMergeNode />
        <feMergeNode in="SourceGraphic" />
      </feMerge>
    </filter>
  </defs>
  
  <!-- Main Logo Group -->
  <g filter="url(#shadow)">
    <!-- Caduceus medical symbol (simplified) -->
    <g transform="translate(40, 20) scale(0.9)">
      <!-- Staff -->
      <rect x="25" y="5" width="4" height="50" rx="2" fill="url(#blue-gradient)" />
      
      <!-- Snakes -->
      <path d="M15,10 Q5,25 15,40 Q25,25 15,10 Z" fill="url(#accent-gradient)" />
      <path d="M39,10 Q49,25 39,40 Q29,25 39,10 Z" fill="url(#accent-gradient)" />
      
      <!-- Wings -->
      <path d="M27,15 Q35,5 45,15 Q35,10 27,15 Z" fill="#004dc0" fill-opacity="0.6" />
      <path d="M27,15 Q19,5 9,15 Q19,10 27,15 Z" fill="#004dc0" fill-opacity="0.6" />
    </g>
    
    <!-- Medicare Text - Main Name -->
    <text x="85" y="38" font-family="'Helvetica Neue', Arial, sans-serif" font-size="24" font-weight="bold" fill="#004080">MEDICARE</text>
    
    <!-- Separator Line -->
    <line x1="85" y1="45" x2="245" y2="45" stroke="url(#blue-gradient)" stroke-width="1" />
    
    <!-- Tagline -->
    <text x="85" y="60" font-family="'Helvetica Neue', Arial, sans-serif" font-size="12" fill="#666666">Excellence in Healthcare</text>
  </g>
</svg>
